<?xml version="1.0" encoding="utf-8"?>
<svg id="master-artboard" viewBox="0 0 875 980" version="1.1" xmlns="http://www.w3.org/2000/svg" x="0px" y="0px" style="enable-background:new 0 0 336 235.2;" width="875px" height="980px"><g transform="matrix(0.9910129904747009, 0, 0, 0.9910129904747009, 16.375104904174805, 10.408706665039062)"><rect id="ee-background" x="0" y="0" width="875" height="980" style="fill: rgb(0, 145, 234); fill-opacity: 1; pointer-events: none;" transform="matrix(1, 0, 0, 1, -2, 36)"/><g transform="matrix(1.9224848747253418, 0, 0, 1.9224848747253418, 21.899429321289062, 19.187198638916016)"><path fill="none" d="M-1-1h428v484H-1z"/><g>
    <g stroke="#fff" stroke-linejoin="undefined" stroke-linecap="undefined" stroke-width="25" fill="#000">
      <path d="M207.694 6.224l210.138 121.799"/>
      <path fill-opacity="null" stroke-opacity="null" d="M413.956 120.248v239.915M11.335 122.401l405.636 233.391M208.555 473.348l209.277-119.709M216.306 473.348L7.46 353.355M10.474 119.386v240.737M6.168 125.66L215.876 6.136M212.431 382.808l125.307-72.661M6.168 270.091l213.583 112.747M216.737 95.977L89.707 171.06M208.555 96.351L411.373 206.37"/>
    </g>
  </g></g></g></svg>