<?xml version="1.0" encoding="UTF-8" standalone="no"?>
<!DOCTYPE svg PUBLIC "-//W3C//DTD SVG 1.1//EN" "http://www.w3.org/Graphics/SVG/1.1/DTD/svg11.dtd">
<svg version="1.1" xmlns="http://www.w3.org/2000/svg" xmlns:xlink="http://www.w3.org/1999/xlink" preserveAspectRatio="xMidYMid meet" viewBox="0 0 640 640" width="640" height="640"><defs><path d="M324.78 59.9C211.98 129.31 149.31 167.88 136.78 175.59C136.78 175.59 136.78 414.2 324.78 544.35C512.77 414.2 512.77 175.59 512.77 175.59C487.71 160.17 425.04 121.6 324.78 59.9Z" id="b11hKy3pEW"></path><path d="M325.9 59.9L322.69 61.88C322.69 350.01 322.69 510.08 322.69 542.09C323.75 542.85 324.82 543.6 325.9 544.35C513.89 414.2 513.89 175.59 513.89 175.59C488.83 160.17 426.16 121.6 325.9 59.9Z" id="aJozS20Kp"></path><path d="M314.7 326.82L358.64 263.44L376.36 278.21L314.7 356.35L264.5 300.24L279.26 294.33L279.26 294.33L314.7 326.82Z" id="nfs1LC63c"></path><linearGradient id="gradientcNYyGbLhq" gradientUnits="userSpaceOnUse" x1="264.5" y1="309.9" x2="376.36" y2="309.9"><stop style="stop-color: #808080;stop-opacity: 0.25" offset="0%"></stop><stop style="stop-color: #808080;stop-opacity: 0.12" offset="53.513999999999996%"></stop><stop style="stop-color: #808080;stop-opacity: 0.1" offset="100%"></stop></linearGradient><path d="M316.38 322.64L357.1 262.74L371.48 274.72L316.38 346.59L275.65 301.08L287.63 296.28L287.63 296.28L316.38 322.64Z" id="c65Z3nFECe"></path><path d="M137.86 82.74C137.89 82.65 137.91 82.56 137.91 82.46C137.91 82.46 137.91 82.46 137.91 82.46C137.96 81.75 137.42 81.14 136.71 81.1C136.28 81.07 135.87 81.26 135.61 81.61C135.61 81.61 135.61 81.61 135.61 81.61C135.55 81.69 135.5 81.77 135.46 81.86C134.95 83.05 133.61 83.67 132.37 83.29C132.28 83.26 132.18 83.24 132.09 83.23C132.09 83.23 132.09 83.23 132.09 83.23C131.38 83.19 130.77 83.73 130.73 84.44C130.7 84.86 130.89 85.28 131.23 85.54C131.23 85.54 131.23 85.54 131.23 85.54C131.31 85.6 131.4 85.64 131.49 85.68C132.68 86.2 133.29 87.53 132.91 88.78C132.88 88.87 132.87 88.96 132.86 89.06C132.86 89.06 132.86 89.06 132.86 89.06C132.81 89.77 133.35 90.38 134.06 90.42C134.49 90.45 134.91 90.26 135.17 89.91C135.17 89.91 135.17 89.91 135.17 89.91C135.22 89.83 135.27 89.75 135.31 89.66C135.83 88.47 137.16 87.85 138.4 88.23C138.5 88.26 138.59 88.28 138.69 88.29C138.69 88.29 138.69 88.29 138.69 88.29C139.4 88.33 140 87.79 140.05 87.08C140.07 86.65 139.88 86.24 139.54 85.98C139.54 85.98 139.54 85.98 139.54 85.98C139.46 85.92 139.38 85.88 139.29 85.84C138.09 85.32 137.48 83.99 137.86 82.74Z" id="e40aE9eJkg"></path><path d="M36.09 309.28C36.12 309.19 36.14 309.1 36.15 309C36.15 309 36.15 309 36.15 309C36.19 308.29 35.65 307.68 34.94 307.64C34.51 307.61 34.1 307.8 33.84 308.15C33.84 308.15 33.84 308.15 33.84 308.15C33.78 308.23 33.73 308.31 33.7 308.4C33.18 309.59 31.85 310.21 30.6 309.83C30.51 309.8 30.41 309.78 30.32 309.77C30.32 309.77 30.32 309.77 30.32 309.77C29.61 309.73 29 310.27 28.96 310.98C28.93 311.41 29.12 311.82 29.47 312.08C29.47 312.08 29.47 312.08 29.47 312.08C29.54 312.14 29.63 312.18 29.72 312.22C30.91 312.74 31.52 314.07 31.14 315.32C31.11 315.41 31.1 315.5 31.09 315.6C31.09 315.6 31.09 315.6 31.09 315.6C31.05 316.31 31.58 316.92 32.29 316.96C32.72 316.99 33.14 316.8 33.4 316.45C33.4 316.45 33.4 316.45 33.4 316.45C33.45 316.37 33.5 316.29 33.54 316.2C34.06 315.01 35.39 314.39 36.63 314.77C36.73 314.8 36.82 314.82 36.92 314.83C36.92 314.83 36.92 314.83 36.92 314.83C37.63 314.87 38.24 314.33 38.28 313.62C38.3 313.19 38.11 312.78 37.77 312.52C37.77 312.52 37.77 312.52 37.77 312.52C37.69 312.46 37.61 312.42 37.52 312.38C36.32 311.86 35.71 310.53 36.09 309.28Z" id="aCtyGNagW"></path><path d="M545.74 225.28C543.43 225.28 541.56 227.15 541.56 229.46C541.56 231.77 543.43 233.64 545.74 233.64C548.05 233.64 549.92 231.77 549.92 229.46C549.92 227.15 548.05 225.28 545.74 225.28Z" id="a2mXXvQMKW"></path><path d="M108.69 524.31C106.38 524.31 104.51 526.18 104.51 528.49C104.51 530.8 106.38 532.68 108.69 532.68C111 532.68 112.87 530.8 112.87 528.49C112.87 526.18 111 524.31 108.69 524.31Z" id="aGiXRniDb"></path><path d="M616.84 386.3C614.53 386.3 612.66 388.17 612.66 390.48C612.66 392.79 614.53 394.66 616.84 394.66C619.15 394.66 621.02 392.79 621.02 390.48C621.02 388.17 619.15 386.3 616.84 386.3Z" id="a4W2sGqC8w"></path><path d="M513.57 102.96C513.6 102.86 513.62 102.77 513.62 102.67C513.62 102.67 513.62 102.67 513.62 102.67C513.67 101.96 513.13 101.36 512.42 101.31C511.99 101.29 511.57 101.48 511.32 101.82C511.32 101.82 511.32 101.82 511.32 101.82C511.26 101.9 511.21 101.98 511.17 102.07C510.65 103.27 509.32 103.88 508.08 103.5C507.99 103.47 507.89 103.45 507.79 103.45C507.79 103.45 507.79 103.45 507.79 103.45C507.09 103.4 506.48 103.94 506.43 104.65C506.41 105.08 506.6 105.49 506.94 105.75C506.94 105.75 506.94 105.75 506.94 105.75C507.02 105.81 507.1 105.86 507.19 105.9C508.39 106.41 509 107.75 508.62 108.99C508.59 109.08 508.57 109.18 508.57 109.27C508.57 109.27 508.57 109.27 508.57 109.27C508.52 109.98 509.06 110.59 509.77 110.63C510.2 110.66 510.61 110.47 510.87 110.13C510.87 110.13 510.87 110.13 510.87 110.13C510.93 110.05 510.98 109.96 511.02 109.87C511.53 108.68 512.87 108.07 514.11 108.45C514.2 108.48 514.3 108.49 514.4 108.5C514.4 108.5 514.4 108.5 514.4 108.5C515.1 108.55 515.71 108.01 515.76 107.3C515.78 106.87 515.59 106.45 515.25 106.19C515.25 106.19 515.25 106.19 515.25 106.19C515.17 106.14 515.08 106.09 514.99 106.05C513.8 105.53 513.19 104.2 513.57 102.96Z" id="b2BPSADhe"></path><path d="M583.27 540.7C583.3 540.61 583.32 540.51 583.33 540.42C583.33 540.42 583.33 540.42 583.33 540.42C583.37 539.71 582.83 539.1 582.12 539.06C581.69 539.03 581.28 539.22 581.02 539.57C581.02 539.57 581.02 539.57 581.02 539.57C580.96 539.65 580.91 539.73 580.88 539.82C580.36 541.01 579.03 541.63 577.78 541.25C577.69 541.22 577.59 541.2 577.5 541.19C577.5 541.19 577.5 541.19 577.5 541.19C576.79 541.15 576.18 541.69 576.14 542.39C576.11 542.82 576.3 543.24 576.65 543.5C576.65 543.5 576.65 543.5 576.65 543.5C576.72 543.56 576.81 543.6 576.9 543.64C578.09 544.16 578.71 545.49 578.33 546.74C578.3 546.83 578.28 546.92 578.27 547.02C578.27 547.02 578.27 547.02 578.27 547.02C578.23 547.73 578.77 548.34 579.47 548.38C579.9 548.41 580.32 548.22 580.58 547.87C580.58 547.87 580.58 547.87 580.58 547.87C580.64 547.79 580.68 547.71 580.72 547.62C581.24 546.43 582.57 545.81 583.82 546.19C583.91 546.22 584 546.24 584.1 546.25C584.1 546.25 584.1 546.25 584.1 546.25C584.81 546.29 585.42 545.75 585.46 545.04C585.49 544.61 585.29 544.2 584.95 543.94C584.95 543.94 584.95 543.94 584.95 543.94C584.87 543.88 584.79 543.84 584.7 543.8C583.51 543.28 582.89 541.95 583.27 540.7Z" id="dNGO3mVk2"></path><path d="M31.21 176.84C31.24 176.75 31.26 176.66 31.27 176.56C31.27 176.56 31.27 176.56 31.27 176.56C31.31 175.85 30.77 175.24 30.06 175.2C29.63 175.17 29.22 175.36 28.96 175.71C28.96 175.71 28.96 175.71 28.96 175.71C28.9 175.79 28.85 175.87 28.82 175.96C28.3 177.15 26.97 177.77 25.72 177.39C25.63 177.36 25.53 177.34 25.44 177.33C25.44 177.33 25.44 177.33 25.44 177.33C24.73 177.29 24.12 177.83 24.08 178.54C24.05 178.97 24.24 179.38 24.59 179.64C24.59 179.64 24.59 179.64 24.59 179.64C24.66 179.7 24.75 179.74 24.84 179.78C26.03 180.3 26.64 181.63 26.27 182.88C26.24 182.97 26.22 183.07 26.21 183.16C26.21 183.16 26.21 183.16 26.21 183.16C26.17 183.87 26.71 184.48 27.41 184.52C27.84 184.55 28.26 184.36 28.52 184.01C28.52 184.01 28.52 184.01 28.52 184.01C28.57 183.93 28.62 183.85 28.66 183.76C29.18 182.57 30.51 181.95 31.75 182.33C31.85 182.36 31.94 182.38 32.04 182.39C32.04 182.39 32.04 182.39 32.04 182.39C32.75 182.43 33.36 181.89 33.4 181.19C33.43 180.76 33.23 180.34 32.89 180.08C32.89 180.08 32.89 180.08 32.89 180.08C32.81 180.02 32.73 179.98 32.64 179.94C31.44 179.42 30.83 178.09 31.21 176.84Z" id="cb0zV2mAW"></path><path d="M79.42 246.19C77.11 246.19 75.23 248.06 75.23 250.37C75.23 252.68 77.11 254.55 79.42 254.55C81.73 254.55 83.6 252.68 83.6 250.37C83.6 248.06 81.73 246.19 79.42 246.19Z" id="f2lYQvR1a9"></path><path d="M618.93 279.65C616.62 279.65 614.75 281.52 614.75 283.83C614.75 286.14 616.62 288.01 618.93 288.01C621.24 288.01 623.11 286.14 623.11 283.83C623.11 281.52 621.24 279.65 618.93 279.65Z" id="iacIHvXGw"></path><path d="M432.82 52.41C432.82 52.41 432.82 52.41 432.82 52.41C432.82 59.52 432.82 63.47 432.82 64.26C432.82 64.26 432.82 64.26 432.82 64.26C431.56 64.26 430.87 64.26 430.73 64.26C430.73 64.26 430.73 64.26 430.73 64.26C430.73 57.15 430.73 53.2 430.73 52.41C430.73 52.41 430.73 52.41 430.73 52.41C431.98 52.41 432.68 52.41 432.82 52.41Z" id="aiiBXW8sh"></path><path d="M437.7 59.38C437.7 59.38 437.7 59.38 437.7 59.38C430.59 59.38 426.64 59.38 425.85 59.38C425.85 59.38 425.85 59.38 425.85 59.38C425.85 58.13 425.85 57.43 425.85 57.29C425.85 57.29 425.85 57.29 425.85 57.29C432.96 57.29 436.91 57.29 437.7 57.29C437.7 57.29 437.7 57.29 437.7 57.29C437.7 58.54 437.7 59.24 437.7 59.38Z" id="a3Z4uz3toL"></path><path d="M440.49 516.64C440.49 516.64 440.49 516.64 440.49 516.64C440.49 523.75 440.49 527.7 440.49 528.49C440.49 528.49 440.49 528.49 440.49 528.49C439.23 528.49 438.53 528.49 438.4 528.49C438.4 528.49 438.4 528.49 438.4 528.49C438.4 521.38 438.4 517.43 438.4 516.64C438.4 516.64 438.4 516.64 438.4 516.64C439.65 516.64 440.35 516.64 440.49 516.64Z" id="aOQQQyNMO"></path><path d="M445.37 523.61C445.37 523.61 445.37 523.61 445.37 523.61C438.26 523.61 434.31 523.61 433.52 523.61C433.52 523.61 433.52 523.61 433.52 523.61C433.52 522.36 433.52 521.66 433.52 521.52C433.52 521.52 433.52 521.52 433.52 521.52C440.63 521.52 444.58 521.52 445.37 521.52C445.37 521.52 445.37 521.52 445.37 521.52C445.37 522.78 445.37 523.47 445.37 523.61Z" id="e1mqiULvV0"></path><path d="M44.56 541.74C44.56 541.74 44.56 541.74 44.56 541.74C44.56 548.85 44.56 552.8 44.56 553.59C44.56 553.59 44.56 553.59 44.56 553.59C43.31 553.59 42.61 553.59 42.47 553.59C42.47 553.59 42.47 553.59 42.47 553.59C42.47 546.48 42.47 542.53 42.47 541.74C42.47 541.74 42.47 541.74 42.47 541.74C43.73 541.74 44.42 541.74 44.56 541.74Z" id="a5jwV7C0ih"></path><path d="M49.44 548.71C49.44 548.71 49.44 548.71 49.44 548.71C42.33 548.71 38.38 548.71 37.59 548.71C37.59 548.71 37.59 548.71 37.59 548.71C37.59 547.45 37.59 546.76 37.59 546.62C37.59 546.62 37.59 546.62 37.59 546.62C44.7 546.62 48.65 546.62 49.44 546.62C49.44 546.62 49.44 546.62 49.44 546.62C49.44 547.87 49.44 548.57 49.44 548.71Z" id="adHy0P0Us"></path><path d="M520.65 328.44C520.65 328.44 520.65 328.44 520.65 328.44C520.65 335.55 520.65 339.5 520.65 340.29C520.65 340.29 520.65 340.29 520.65 340.29C519.39 340.29 518.7 340.29 518.56 340.29C518.56 340.29 518.56 340.29 518.56 340.29C518.56 333.18 518.56 329.23 518.56 328.44C518.56 328.44 518.56 328.44 518.56 328.44C519.81 328.44 520.51 328.44 520.65 328.44Z" id="cMwCPvei5"></path><path d="M525.53 335.41C525.53 335.41 525.53 335.41 525.53 335.41C518.42 335.41 514.47 335.41 513.68 335.41C513.68 335.41 513.68 335.41 513.68 335.41C513.68 334.16 513.68 333.46 513.68 333.32C513.68 333.32 513.68 333.32 513.68 333.32C520.79 333.32 524.74 333.32 525.53 333.32C525.53 333.32 525.53 333.32 525.53 333.32C525.53 334.57 525.53 335.27 525.53 335.41Z" id="hN42D8Sjd"></path><path d="M583.14 142.28L589.5 132.92L591.75 134.79L583.14 146.02L576.77 138.91L578.65 138.16L578.65 138.16L583.14 142.28Z" id="a1FsLllNeJ"></path><path d="M450.43 219.19C450.43 219.19 450.43 219.19 450.43 219.19C450.9 231.15 451.15 237.78 451.21 239.11C451.21 239.11 451.21 239.11 451.21 239.11C441.91 239.47 436.75 239.67 435.71 239.71C435.71 239.71 435.71 239.71 435.71 239.71C435.25 227.76 434.99 221.12 434.94 219.79C434.94 219.79 434.94 219.79 434.94 219.79C444.24 219.43 449.4 219.23 450.43 219.19Z" id="a5q8h4DTNC"></path><path d="M380.55 288.95C380.55 288.95 359.09 278.7 359.44 287.56C359.44 287.56 381.06 302.23 381.06 302.23C380.96 299.58 380.65 291.61 380.55 288.95Z" id="e5Ji7sevq"></path><path d="M378.46 406.51C378.46 406.51 369.02 448.99 376.35 466.44C376.35 466.44 404.5 535.17 404.72 540.7C404.72 540.7 402.93 551.85 407.36 551.68C407.36 551.68 435.87 543.92 436.85 540.56C436.85 540.56 428.63 528.69 428.63 528.69C427.12 523.94 419.55 500.23 405.93 457.53L429.62 411.18L446.71 480.33C448.71 532.12 449.83 560.89 450.05 566.65C450.05 566.65 466.48 561.58 468.87 565.92C468.87 565.92 476.23 555.66 477.16 551.19C478.1 546.72 473.68 461.55 473.68 461.55C473.68 461.55 488.76 364.55 476.59 365.02C464.42 365.5 416.74 336.31 392.32 363.86C389.55 372.39 382.2 388.63 378.46 406.51Z" id="dC37Tvjzh"></path><path d="M407.19 547.25C407.19 547.25 395.96 572.07 394.9 573.22C394.9 573.22 386.52 585.73 392.05 585.52C392.05 585.52 410.65 579.26 420.26 570.02C420.26 570.02 442.56 544.77 441.41 543.71C441.41 543.71 432.38 539.63 432.38 539.63C427.34 541.15 412.23 545.73 407.19 547.25Z" id="a1RGlMEXYh"></path><path d="M449.33 576.65C449.33 576.65 447.55 587.8 453.08 587.59C453.08 587.59 472.92 584.6 472.92 584.6C472.92 584.6 473.76 577.92 472.61 576.85C472.61 576.85 466.57 563.79 468.65 560.38C470.74 556.98 452.05 561.03 452.05 561.03C451.51 564.15 451.37 572.14 449.33 576.65Z" id="mNyeM0cNo"></path><path d="M476.63 223.17C476.63 223.17 468.29 236.79 468.29 236.79C465.98 237.1 447.46 239.59 445.14 239.9C445.14 239.9 445.43 218.83 444.24 216.66C443.05 214.49 460.24 200.53 460.24 200.53C463.52 205.06 472.03 218.91 476.63 223.17Z" id="b6euA8LVFt"></path><path d="M440.11 224.58C440.11 224.58 444.88 233.26 449.31 233.09C449.31 233.09 476.63 223.17 477.61 219.8C477.61 219.8 485.19 243.89 485.19 243.89C481.46 250.46 462.78 283.33 429.17 342.48L415.5 333.04L422.13 275.15L427.56 243.91C434.26 233.6 438.44 227.16 440.11 224.58Z" id="d7jIosh9l3"></path><path d="M476.24 327.36C476.25 327.58 476.26 327.8 476.28 328.02C476.81 338.26 480.58 350.11 481.93 358.72C482.91 364.9 482.63 369.41 479.02 370.47C470.25 373.03 480.3 374.85 446.38 386.14C412.46 397.43 406.54 387.69 406.46 385.48C406.37 383.26 411.26 366.45 410.11 365.39C408.96 364.32 394.03 379.31 389.51 377.27C385 375.22 389 363.99 389 363.99C389 363.99 399.16 340.32 398.95 334.79C398.73 329.25 414.35 303.16 414.35 303.16C415.41 296.25 423.9 240.95 424.96 234.03C424.96 234.03 429.05 225.01 434.54 223.69C434.54 223.69 444.58 225.52 444.58 225.52C443.97 226.87 440.91 233.64 435.4 245.82L425.7 281.66C426.68 289.6 427.22 294.02 427.32 294.9C427.32 294.9 438.6 271.19 446 262.03C446 262.03 469.19 231.21 469.19 231.21C469.19 231.21 472.87 218.78 470.09 215.06C467.31 211.34 481.69 210.78 487.83 226.06C491.08 234.15 496.35 246.23 499.66 257.47C502.61 267.43 504 276.74 501.08 282.06C496.62 290.19 485.4 300.88 479.68 312.82C477.44 317.49 476.05 322.37 476.24 327.36Z" id="bh8oNnVhp"></path><path d="M479.68 312.82C478.18 307.43 476.36 301.86 476.36 301.86C476.36 301.86 469.37 264.45 490.05 254.78C493.48 254.45 496.9 255.41 499.66 257.47C502.61 267.43 504 276.74 501.08 282.06C496.62 290.19 485.4 300.88 479.68 312.82Z" id="a3UPH8u05F"></path><path d="M401.44 284.82L377.1 285.76L374.59 306.92C398.6 308.65 411.94 309.61 414.6 309.8C414.6 309.8 424.6 281.7 418.98 279.71C416.64 280.39 410.8 282.09 401.44 284.82Z" id="biPhjdbsd"></path><path d="M447.57 350.83C447.57 350.83 424.11 354.72 429.47 361.78C429.47 361.78 455.6 361.42 455.6 361.42C453.99 359.3 449.18 352.95 447.57 350.83Z" id="adWOchL0W"></path><path d="M481.93 358.72C474.46 365.79 467.35 372.03 464.68 372.14C459.14 372.35 450.25 371.59 446.97 372.82C443.69 374.06 441.77 353.07 441.77 353.07C441.77 353.07 443.73 346.35 452.45 342.69C458.34 340.21 469.63 333.49 476.28 328.02C476.81 338.26 480.58 350.11 481.93 358.72Z" id="b5LFlWsYLS"></path><path d="M507.51 276.27C507.51 276.27 509.48 327.18 501.95 333.01C501.95 333.01 469.95 365.28 464.42 365.5C464.42 365.5 449.99 364.95 446.71 366.18C446.71 366.18 441.51 346.44 441.51 346.44C441.51 346.44 443.47 339.71 452.19 336.05C452.19 336.05 481.47 319.4 481.3 314.97C481.3 314.97 476.1 295.22 476.1 295.22C476.1 295.22 469.11 257.81 489.79 248.14C493.33 253.77 508.52 245.2 507.51 276.27Z" id="aGBfOyfUz"></path><path d="M443.72 179.02C430.27 179.02 419.36 189.93 419.36 203.38C419.36 216.84 430.27 227.75 443.72 227.75C457.18 227.75 468.09 216.84 468.09 203.38C468.09 189.93 457.18 179.02 443.72 179.02Z" id="agsFQU0IH"></path><path d="M425.27 169.49C424.48 169.63 423.72 169.11 423.58 168.32C423.02 169.48 422.39 170.71 421.25 171.3C420.12 171.89 418.36 171.4 418.19 170.12C418.03 171.09 417.6 171.99 416.96 172.73C416.25 173.41 414.97 173.58 414.35 172.82C414.85 175.54 414.54 178.34 414.7 181.11C414.86 183.87 415.59 186.8 417.68 188.62C420.73 191.27 425.31 190.62 429.32 190.12C429.92 189.99 430.55 190.02 431.14 190.22C432.64 190.86 432.57 192.94 432.59 194.57C432.84 200.48 437.33 205.34 443.19 206.07C444.78 206.32 446.41 205.92 447.71 204.97C448.84 204.01 449.42 202.44 450.73 201.71C452.85 200.53 455.42 202.25 456.97 204.12C458.52 205.98 460.05 208.28 462.45 208.62C465.63 209.07 468.05 205.84 469.23 202.86C472.54 194.42 472.3 185 468.57 176.74C461.93 162.28 439.28 159.99 427.32 168.46C426.73 168.97 426.03 169.32 425.27 169.49Z" id="dE544AQ16"></path></defs><g><g><g><use xlink:href="#b11hKy3pEW" opacity="1" fill="#0091ea" fill-opacity="1"></use><g><use xlink:href="#b11hKy3pEW" opacity="1" fill-opacity="0" stroke="#000000" stroke-width="1" stroke-opacity="0"></use></g></g><g><use xlink:href="#aJozS20Kp" opacity="1" fill="#0091ea" fill-opacity="1"></use><g><use xlink:href="#aJozS20Kp" opacity="1" fill-opacity="0" stroke="#000000" stroke-width="1" stroke-opacity="0"></use></g></g><g><use xlink:href="#nfs1LC63c" opacity="1" fill="url(#gradientcNYyGbLhq)"></use><g><use xlink:href="#nfs1LC63c" opacity="1" fill-opacity="0" stroke="#000000" stroke-width="1" stroke-opacity="0"></use></g></g><g><use xlink:href="#c65Z3nFECe" opacity="1" fill="#3ad29f" fill-opacity="1"></use><g><use xlink:href="#c65Z3nFECe" opacity="1" fill-opacity="0" stroke="#000000" stroke-width="1" stroke-opacity="0"></use></g></g><g><use xlink:href="#e40aE9eJkg" opacity="1" fill="#4d8af0" fill-opacity="1"></use><g><use xlink:href="#e40aE9eJkg" opacity="1" fill-opacity="0" stroke="#000000" stroke-width="1" stroke-opacity="0"></use></g></g><g><use xlink:href="#aCtyGNagW" opacity="1" fill="#4d8af0" fill-opacity="1"></use><g><use xlink:href="#aCtyGNagW" opacity="1" fill-opacity="0" stroke="#000000" stroke-width="1" stroke-opacity="0"></use></g></g><g><use xlink:href="#a2mXXvQMKW" opacity="1" fill="#f55f44" fill-opacity="1"></use><g><use xlink:href="#a2mXXvQMKW" opacity="1" fill-opacity="0" stroke="#000000" stroke-width="1" stroke-opacity="0"></use></g></g><g><use xlink:href="#aGiXRniDb" opacity="1" fill="#f55f44" fill-opacity="1"></use><g><use xlink:href="#aGiXRniDb" opacity="1" fill-opacity="0" stroke="#000000" stroke-width="1" stroke-opacity="0"></use></g></g><g><use xlink:href="#a4W2sGqC8w" opacity="1" fill="#f55f44" fill-opacity="1"></use><g><use xlink:href="#a4W2sGqC8w" opacity="1" fill-opacity="0" stroke="#000000" stroke-width="1" stroke-opacity="0"></use></g></g><g><use xlink:href="#b2BPSADhe" opacity="1" fill="#4d8af0" fill-opacity="1"></use><g><use xlink:href="#b2BPSADhe" opacity="1" fill-opacity="0" stroke="#000000" stroke-width="1" stroke-opacity="0"></use></g></g><g><use xlink:href="#dNGO3mVk2" opacity="1" fill="#4d8af0" fill-opacity="1"></use><g><use xlink:href="#dNGO3mVk2" opacity="1" fill-opacity="0" stroke="#000000" stroke-width="1" stroke-opacity="0"></use></g></g><g><use xlink:href="#cb0zV2mAW" opacity="1" fill="#4d8af0" fill-opacity="1"></use><g><use xlink:href="#cb0zV2mAW" opacity="1" fill-opacity="0" stroke="#000000" stroke-width="1" stroke-opacity="0"></use></g></g><g><use xlink:href="#f2lYQvR1a9" opacity="1" fill="#47e6b1" fill-opacity="1"></use><g><use xlink:href="#f2lYQvR1a9" opacity="1" fill-opacity="0" stroke="#000000" stroke-width="1" stroke-opacity="0"></use></g></g><g><use xlink:href="#iacIHvXGw" opacity="1" fill="#47e6b1" fill-opacity="1"></use><g><use xlink:href="#iacIHvXGw" opacity="1" fill-opacity="0" stroke="#000000" stroke-width="1" stroke-opacity="0"></use></g></g><g><use xlink:href="#aiiBXW8sh" opacity="1" fill="#47e6b1" fill-opacity="1"></use><g><use xlink:href="#aiiBXW8sh" opacity="1" fill-opacity="0" stroke="#000000" stroke-width="1" stroke-opacity="0"></use></g></g><g><use xlink:href="#a3Z4uz3toL" opacity="1" fill="#47e6b1" fill-opacity="1"></use><g><use xlink:href="#a3Z4uz3toL" opacity="1" fill-opacity="0" stroke="#000000" stroke-width="1" stroke-opacity="0"></use></g></g><g><use xlink:href="#aOQQQyNMO" opacity="1" fill="#47e6b1" fill-opacity="1"></use><g><use xlink:href="#aOQQQyNMO" opacity="1" fill-opacity="0" stroke="#000000" stroke-width="1" stroke-opacity="0"></use></g></g><g><use xlink:href="#e1mqiULvV0" opacity="1" fill="#47e6b1" fill-opacity="1"></use><g><use xlink:href="#e1mqiULvV0" opacity="1" fill-opacity="0" stroke="#000000" stroke-width="1" stroke-opacity="0"></use></g></g><g><use xlink:href="#a5jwV7C0ih" opacity="1" fill="#47e6b1" fill-opacity="1"></use><g><use xlink:href="#a5jwV7C0ih" opacity="1" fill-opacity="0" stroke="#000000" stroke-width="1" stroke-opacity="0"></use></g></g><g><use xlink:href="#adHy0P0Us" opacity="1" fill="#47e6b1" fill-opacity="1"></use><g><use xlink:href="#adHy0P0Us" opacity="1" fill-opacity="0" stroke="#000000" stroke-width="1" stroke-opacity="0"></use></g></g><g><use xlink:href="#cMwCPvei5" opacity="1" fill="#47e6b1" fill-opacity="1"></use><g><use xlink:href="#cMwCPvei5" opacity="1" fill-opacity="0" stroke="#000000" stroke-width="1" stroke-opacity="0"></use></g></g><g><use xlink:href="#hN42D8Sjd" opacity="1" fill="#47e6b1" fill-opacity="1"></use><g><use xlink:href="#hN42D8Sjd" opacity="1" fill-opacity="0" stroke="#000000" stroke-width="1" stroke-opacity="0"></use></g></g><g><use xlink:href="#a1FsLllNeJ" opacity="1" fill="#47e6b1" fill-opacity="1"></use><g><use xlink:href="#a1FsLllNeJ" opacity="1" fill-opacity="0" stroke="#000000" stroke-width="1" stroke-opacity="0"></use></g></g><g><use xlink:href="#a5q8h4DTNC" opacity="1" fill="#0091ea" fill-opacity="1"></use><g><use xlink:href="#a5q8h4DTNC" opacity="1" fill-opacity="0" stroke="#000000" stroke-width="1" stroke-opacity="0"></use></g></g><g><use xlink:href="#e5Ji7sevq" opacity="1" fill="#ffb9b9" fill-opacity="1"></use><g><use xlink:href="#e5Ji7sevq" opacity="1" fill-opacity="0" stroke="#000000" stroke-width="1" stroke-opacity="0"></use></g></g><g><use xlink:href="#dC37Tvjzh" opacity="1" fill="#000000" fill-opacity="1"></use><g><use xlink:href="#dC37Tvjzh" opacity="1" fill-opacity="0" stroke="#000000" stroke-width="1" stroke-opacity="0"></use></g></g><g><use xlink:href="#a1RGlMEXYh" opacity="1" fill="#b2b6b9" fill-opacity="1"></use><g><use xlink:href="#a1RGlMEXYh" opacity="1" fill-opacity="0" stroke="#000000" stroke-width="1" stroke-opacity="0"></use></g></g><g><use xlink:href="#mNyeM0cNo" opacity="1" fill="#b2b6b9" fill-opacity="1"></use><g><use xlink:href="#mNyeM0cNo" opacity="1" fill-opacity="0" stroke="#000000" stroke-width="1" stroke-opacity="0"></use></g></g><g><use xlink:href="#b6euA8LVFt" opacity="1" fill="#ffb9b9" fill-opacity="1"></use><g><use xlink:href="#b6euA8LVFt" opacity="1" fill-opacity="0" stroke="#000000" stroke-width="1" stroke-opacity="0"></use></g></g><g><use xlink:href="#d7jIosh9l3" opacity="1" fill="#b2b6b9" fill-opacity="1"></use><g><use xlink:href="#d7jIosh9l3" opacity="1" fill-opacity="0" stroke="#000000" stroke-width="1" stroke-opacity="0"></use></g></g><g><use xlink:href="#bh8oNnVhp" opacity="1" fill="#201d12" fill-opacity="1"></use><g><use xlink:href="#bh8oNnVhp" opacity="1" fill-opacity="0" stroke="#000000" stroke-width="1" stroke-opacity="0"></use></g></g><g><use xlink:href="#a3UPH8u05F" opacity="1" fill="#000000" fill-opacity="1"></use><g><use xlink:href="#a3UPH8u05F" opacity="1" fill-opacity="0" stroke="#000000" stroke-width="1" stroke-opacity="0"></use></g></g><g><use xlink:href="#biPhjdbsd" opacity="1" fill="#212224" fill-opacity="1"></use><g><use xlink:href="#biPhjdbsd" opacity="1" fill-opacity="0" stroke="#000000" stroke-width="1" stroke-opacity="0"></use></g></g><g><use xlink:href="#adWOchL0W" opacity="1" fill="#ffb9b9" fill-opacity="1"></use><g><use xlink:href="#adWOchL0W" opacity="1" fill-opacity="0" stroke="#000000" stroke-width="1" stroke-opacity="0"></use></g></g><g><use xlink:href="#b5LFlWsYLS" opacity="1" fill="#000000" fill-opacity="1"></use><g><use xlink:href="#b5LFlWsYLS" opacity="1" fill-opacity="0" stroke="#000000" stroke-width="1" stroke-opacity="0"></use></g></g><g><use xlink:href="#aGBfOyfUz" opacity="1" fill="#1d1e24" fill-opacity="1"></use><g><use xlink:href="#aGBfOyfUz" opacity="1" fill-opacity="0" stroke="#000000" stroke-width="1" stroke-opacity="0"></use></g></g><g><use xlink:href="#agsFQU0IH" opacity="1" fill="#ffb9b9" fill-opacity="1"></use><g><use xlink:href="#agsFQU0IH" opacity="1" fill-opacity="0" stroke="#000000" stroke-width="1" stroke-opacity="0"></use></g></g><g><use xlink:href="#dE544AQ16" opacity="1" fill="#2f2e41" fill-opacity="1"></use><g><use xlink:href="#dE544AQ16" opacity="1" fill-opacity="0" stroke="#000000" stroke-width="1" stroke-opacity="0"></use></g></g></g></g></svg>