<?xml version="1.0" encoding="UTF-8" standalone="no"?>
<!DOCTYPE svg PUBLIC "-//W3C//DTD SVG 1.1//EN" "http://www.w3.org/Graphics/SVG/1.1/DTD/svg11.dtd">
<svg version="1.1" xmlns="http://www.w3.org/2000/svg" xmlns:xlink="http://www.w3.org/1999/xlink" preserveAspectRatio="xMidYMid meet" viewBox="0 0 600 535" width="600" height="535"><defs><path d="M301.68 7.9C188.88 77.31 126.22 115.88 113.69 123.59C113.69 123.59 113.69 362.2 301.68 492.35C489.68 362.2 489.68 123.59 489.68 123.59C464.61 108.17 401.95 69.6 301.68 7.9Z" id="cGSc9F6FI"></path><path d="M302.76 7.9L299.56 9.88C299.56 298.01 299.56 458.08 299.56 490.09C300.63 490.85 301.69 491.6 302.76 492.35C489.68 362.2 489.68 123.59 489.68 123.59C464.75 108.17 402.45 69.6 302.76 7.9Z" id="a5I0we10Ye"></path><path d="M290.7 274.82L334.64 211.44L352.36 226.21L290.7 304.35L240.5 248.24L255.26 242.33L255.26 242.33L290.7 274.82Z" id="b4CdX7E28T"></path><linearGradient id="gradientadNqpFcDZ" gradientUnits="userSpaceOnUse" x1="240.5" y1="257.9" x2="352.36" y2="257.9"><stop style="stop-color: #808080;stop-opacity: 0.25" offset="0%"></stop><stop style="stop-color: #808080;stop-opacity: 0.12" offset="53.513999999999996%"></stop><stop style="stop-color: #808080;stop-opacity: 0.1" offset="100%"></stop></linearGradient><path d="M292.38 270.64L333.1 210.74L347.48 222.72L292.38 294.59L251.65 249.08L263.63 244.28L263.63 244.28L292.38 270.64Z" id="bAFiiXRFn"></path><path d="M113.86 30.74C113.89 30.65 113.91 30.56 113.91 30.46C113.91 30.46 113.91 30.46 113.91 30.46C113.96 29.75 113.42 29.14 112.71 29.1C112.28 29.07 111.87 29.26 111.61 29.61C111.61 29.61 111.61 29.61 111.61 29.61C111.55 29.69 111.5 29.77 111.46 29.86C110.95 31.05 109.61 31.67 108.37 31.29C108.28 31.26 108.18 31.24 108.09 31.23C108.09 31.23 108.09 31.23 108.09 31.23C107.38 31.19 106.77 31.73 106.73 32.44C106.7 32.86 106.89 33.28 107.23 33.54C107.23 33.54 107.23 33.54 107.23 33.54C107.31 33.6 107.4 33.64 107.49 33.68C108.68 34.2 109.29 35.53 108.91 36.78C108.88 36.87 108.87 36.96 108.86 37.06C108.86 37.06 108.86 37.06 108.86 37.06C108.81 37.77 109.35 38.38 110.06 38.42C110.49 38.45 110.91 38.26 111.17 37.91C111.17 37.91 111.17 37.91 111.17 37.91C111.22 37.83 111.27 37.75 111.31 37.66C111.83 36.47 113.16 35.85 114.4 36.23C114.5 36.26 114.59 36.28 114.69 36.29C114.69 36.29 114.69 36.29 114.69 36.29C115.4 36.33 116 35.79 116.05 35.08C116.07 34.65 115.88 34.24 115.54 33.98C115.54 33.98 115.54 33.98 115.54 33.98C115.46 33.92 115.38 33.88 115.29 33.84C114.09 33.32 113.48 31.99 113.86 30.74Z" id="e1Z65VsYza"></path><path d="M12.09 257.28C12.12 257.19 12.14 257.1 12.15 257C12.15 257 12.15 257 12.15 257C12.19 256.29 11.65 255.68 10.94 255.64C10.51 255.61 10.1 255.8 9.84 256.15C9.84 256.15 9.84 256.15 9.84 256.15C9.78 256.23 9.73 256.31 9.7 256.4C9.18 257.59 7.85 258.21 6.6 257.83C6.51 257.8 6.41 257.78 6.32 257.77C6.32 257.77 6.32 257.77 6.32 257.77C5.61 257.73 5 258.27 4.96 258.98C4.93 259.41 5.12 259.82 5.47 260.08C5.47 260.08 5.47 260.08 5.47 260.08C5.54 260.14 5.63 260.18 5.72 260.22C6.91 260.74 7.52 262.07 7.14 263.32C7.11 263.41 7.1 263.5 7.09 263.6C7.09 263.6 7.09 263.6 7.09 263.6C7.05 264.31 7.58 264.92 8.29 264.96C8.72 264.99 9.14 264.8 9.4 264.45C9.4 264.45 9.4 264.45 9.4 264.45C9.45 264.37 9.5 264.29 9.54 264.2C10.06 263.01 11.39 262.39 12.63 262.77C12.73 262.8 12.82 262.82 12.92 262.83C12.92 262.83 12.92 262.83 12.92 262.83C13.63 262.87 14.24 262.33 14.28 261.62C14.3 261.19 14.11 260.78 13.77 260.52C13.77 260.52 13.77 260.52 13.77 260.52C13.69 260.46 13.61 260.42 13.52 260.38C12.32 259.86 11.71 258.53 12.09 257.28Z" id="a2hPvYThTL"></path><path d="M521.74 173.28C519.43 173.28 517.56 175.15 517.56 177.46C517.56 179.77 519.43 181.64 521.74 181.64C524.05 181.64 525.92 179.77 525.92 177.46C525.92 175.15 524.05 173.28 521.74 173.28Z" id="a3aEyx1Npc"></path><path d="M84.69 472.31C82.38 472.31 80.51 474.18 80.51 476.49C80.51 478.8 82.38 480.68 84.69 480.68C87 480.68 88.87 478.8 88.87 476.49C88.87 474.18 87 472.31 84.69 472.31Z" id="a3bcBFQtTQ"></path><path d="M592.84 334.3C590.53 334.3 588.66 336.17 588.66 338.48C588.66 340.79 590.53 342.66 592.84 342.66C595.15 342.66 597.02 340.79 597.02 338.48C597.02 336.17 595.15 334.3 592.84 334.3Z" id="a354RMSoe"></path><path d="M489.57 50.96C489.6 50.86 489.62 50.77 489.62 50.67C489.62 50.67 489.62 50.67 489.62 50.67C489.67 49.96 489.13 49.36 488.42 49.31C487.99 49.29 487.57 49.48 487.32 49.82C487.32 49.82 487.32 49.82 487.32 49.82C487.26 49.9 487.21 49.98 487.17 50.07C486.65 51.27 485.32 51.88 484.08 51.5C483.99 51.47 483.89 51.45 483.79 51.45C483.79 51.45 483.79 51.45 483.79 51.45C483.09 51.4 482.48 51.94 482.43 52.65C482.41 53.08 482.6 53.49 482.94 53.75C482.94 53.75 482.94 53.75 482.94 53.75C483.02 53.81 483.1 53.86 483.19 53.9C484.39 54.41 485 55.75 484.62 56.99C484.59 57.08 484.57 57.18 484.57 57.27C484.57 57.27 484.57 57.27 484.57 57.27C484.52 57.98 485.06 58.59 485.77 58.63C486.2 58.66 486.61 58.47 486.87 58.13C486.87 58.13 486.87 58.13 486.87 58.13C486.93 58.05 486.98 57.96 487.02 57.87C487.53 56.68 488.87 56.07 490.11 56.45C490.2 56.48 490.3 56.49 490.4 56.5C490.4 56.5 490.4 56.5 490.4 56.5C491.1 56.55 491.71 56.01 491.76 55.3C491.78 54.87 491.59 54.45 491.25 54.19C491.25 54.19 491.25 54.19 491.25 54.19C491.17 54.14 491.08 54.09 490.99 54.05C489.8 53.53 489.19 52.2 489.57 50.96Z" id="azLZlPUbC"></path><path d="M559.27 488.7C559.3 488.61 559.32 488.51 559.33 488.42C559.33 488.42 559.33 488.42 559.33 488.42C559.37 487.71 558.83 487.1 558.12 487.06C557.69 487.03 557.28 487.22 557.02 487.57C557.02 487.57 557.02 487.57 557.02 487.57C556.96 487.65 556.91 487.73 556.88 487.82C556.36 489.01 555.03 489.63 553.78 489.25C553.69 489.22 553.59 489.2 553.5 489.19C553.5 489.19 553.5 489.19 553.5 489.19C552.79 489.15 552.18 489.69 552.14 490.39C552.11 490.82 552.3 491.24 552.65 491.5C552.65 491.5 552.65 491.5 552.65 491.5C552.72 491.56 552.81 491.6 552.9 491.64C554.09 492.16 554.71 493.49 554.33 494.74C554.3 494.83 554.28 494.92 554.27 495.02C554.27 495.02 554.27 495.02 554.27 495.02C554.23 495.73 554.77 496.34 555.47 496.38C555.9 496.41 556.32 496.22 556.58 495.87C556.58 495.87 556.58 495.87 556.58 495.87C556.64 495.79 556.68 495.71 556.72 495.62C557.24 494.43 558.57 493.81 559.82 494.19C559.91 494.22 560 494.24 560.1 494.25C560.1 494.25 560.1 494.25 560.1 494.25C560.81 494.29 561.42 493.75 561.46 493.04C561.49 492.61 561.29 492.2 560.95 491.94C560.95 491.94 560.95 491.94 560.95 491.94C560.87 491.88 560.79 491.84 560.7 491.8C559.51 491.28 558.89 489.95 559.27 488.7Z" id="jx48Ykt3q"></path><path d="M7.21 124.84C7.24 124.75 7.26 124.66 7.27 124.56C7.27 124.56 7.27 124.56 7.27 124.56C7.31 123.85 6.77 123.24 6.06 123.2C5.63 123.17 5.22 123.36 4.96 123.71C4.96 123.71 4.96 123.71 4.96 123.71C4.9 123.79 4.85 123.87 4.82 123.96C4.3 125.15 2.97 125.77 1.72 125.39C1.63 125.36 1.53 125.34 1.44 125.33C1.44 125.33 1.44 125.33 1.44 125.33C0.73 125.29 0.12 125.83 0.08 126.54C0.05 126.97 0.24 127.38 0.59 127.64C0.59 127.64 0.59 127.64 0.59 127.64C0.66 127.7 0.75 127.74 0.84 127.78C2.03 128.3 2.64 129.63 2.27 130.88C2.24 130.97 2.22 131.07 2.21 131.16C2.21 131.16 2.21 131.16 2.21 131.16C2.17 131.87 2.71 132.48 3.41 132.52C3.84 132.55 4.26 132.36 4.52 132.01C4.52 132.01 4.52 132.01 4.52 132.01C4.57 131.93 4.62 131.85 4.66 131.76C5.18 130.57 6.51 129.95 7.75 130.33C7.85 130.36 7.94 130.38 8.04 130.39C8.04 130.39 8.04 130.39 8.04 130.39C8.75 130.43 9.36 129.89 9.4 129.19C9.43 128.76 9.23 128.34 8.89 128.08C8.89 128.08 8.89 128.08 8.89 128.08C8.81 128.02 8.73 127.98 8.64 127.94C7.44 127.42 6.83 126.09 7.21 124.84Z" id="f2cA0Ukk4G"></path><path d="M55.42 194.19C53.11 194.19 51.23 196.06 51.23 198.37C51.23 200.68 53.11 202.55 55.42 202.55C57.73 202.55 59.6 200.68 59.6 198.37C59.6 196.06 57.73 194.19 55.42 194.19Z" id="ba7VVQSG"></path><path d="M594.93 227.65C592.62 227.65 590.75 229.52 590.75 231.83C590.75 234.14 592.62 236.01 594.93 236.01C597.24 236.01 599.11 234.14 599.11 231.83C599.11 229.52 597.24 227.65 594.93 227.65Z" id="b1hMGwLcX5"></path><path d="M408.82 0.41C408.82 0.41 408.82 0.41 408.82 0.41C408.82 7.52 408.82 11.47 408.82 12.26C408.82 12.26 408.82 12.26 408.82 12.26C407.56 12.26 406.87 12.26 406.73 12.26C406.73 12.26 406.73 12.26 406.73 12.26C406.73 5.15 406.73 1.2 406.73 0.41C406.73 0.41 406.73 0.41 406.73 0.41C407.98 0.41 408.68 0.41 408.82 0.41Z" id="a3EjFx2Cc"></path><path d="M413.7 7.38C413.7 7.38 413.7 7.38 413.7 7.38C406.59 7.38 402.64 7.38 401.85 7.38C401.85 7.38 401.85 7.38 401.85 7.38C401.85 6.13 401.85 5.43 401.85 5.29C401.85 5.29 401.85 5.29 401.85 5.29C408.96 5.29 412.91 5.29 413.7 5.29C413.7 5.29 413.7 5.29 413.7 5.29C413.7 6.54 413.7 7.24 413.7 7.38Z" id="f2iINgtrNZ"></path><path d="M416.49 464.64C416.49 464.64 416.49 464.64 416.49 464.64C416.49 471.75 416.49 475.7 416.49 476.49C416.49 476.49 416.49 476.49 416.49 476.49C415.23 476.49 414.53 476.49 414.4 476.49C414.4 476.49 414.4 476.49 414.4 476.49C414.4 469.38 414.4 465.43 414.4 464.64C414.4 464.64 414.4 464.64 414.4 464.64C415.65 464.64 416.35 464.64 416.49 464.64Z" id="a24iNVTe"></path><path d="M421.37 471.61C421.37 471.61 421.37 471.61 421.37 471.61C414.26 471.61 410.31 471.61 409.52 471.61C409.52 471.61 409.52 471.61 409.52 471.61C409.52 470.36 409.52 469.66 409.52 469.52C409.52 469.52 409.52 469.52 409.52 469.52C416.63 469.52 420.58 469.52 421.37 469.52C421.37 469.52 421.37 469.52 421.37 469.52C421.37 470.78 421.37 471.47 421.37 471.61Z" id="b12faaURcG"></path><path d="M20.56 489.74C20.56 489.74 20.56 489.74 20.56 489.74C20.56 496.85 20.56 500.8 20.56 501.59C20.56 501.59 20.56 501.59 20.56 501.59C19.31 501.59 18.61 501.59 18.47 501.59C18.47 501.59 18.47 501.59 18.47 501.59C18.47 494.48 18.47 490.53 18.47 489.74C18.47 489.74 18.47 489.74 18.47 489.74C19.73 489.74 20.42 489.74 20.56 489.74Z" id="f6sGw2qK0n"></path><path d="M25.44 496.71C25.44 496.71 25.44 496.71 25.44 496.71C18.33 496.71 14.38 496.71 13.59 496.71C13.59 496.71 13.59 496.71 13.59 496.71C13.59 495.45 13.59 494.76 13.59 494.62C13.59 494.62 13.59 494.62 13.59 494.62C20.7 494.62 24.65 494.62 25.44 494.62C25.44 494.62 25.44 494.62 25.44 494.62C25.44 495.87 25.44 496.57 25.44 496.71Z" id="bsKxs8SrF"></path><path d="M496.65 276.44C496.65 276.44 496.65 276.44 496.65 276.44C496.65 283.55 496.65 287.5 496.65 288.29C496.65 288.29 496.65 288.29 496.65 288.29C495.39 288.29 494.7 288.29 494.56 288.29C494.56 288.29 494.56 288.29 494.56 288.29C494.56 281.18 494.56 277.23 494.56 276.44C494.56 276.44 494.56 276.44 494.56 276.44C495.81 276.44 496.51 276.44 496.65 276.44Z" id="a5jNtjNzMO"></path><path d="M501.53 283.41C501.53 283.41 501.53 283.41 501.53 283.41C494.42 283.41 490.47 283.41 489.68 283.41C489.68 283.41 489.68 283.41 489.68 283.41C489.68 282.16 489.68 281.46 489.68 281.32C489.68 281.32 489.68 281.32 489.68 281.32C496.79 281.32 500.74 281.32 501.53 281.32C501.53 281.32 501.53 281.32 501.53 281.32C501.53 282.57 501.53 283.27 501.53 283.41Z" id="g13cDkwFq7"></path><path d="M559.14 90.28L565.5 80.92L567.75 82.79L559.14 94.02L552.77 86.91L554.65 86.16L554.65 86.16L559.14 90.28Z" id="a1mlSxifoZ"></path><path d="M426.43 167.19C426.43 167.19 426.43 167.19 426.43 167.19C426.9 179.15 427.15 185.78 427.21 187.11C427.21 187.11 427.21 187.11 427.21 187.11C417.91 187.47 412.75 187.67 411.71 187.71C411.71 187.71 411.71 187.71 411.71 187.71C411.25 175.76 410.99 169.12 410.94 167.79C410.94 167.79 410.94 167.79 410.94 167.79C420.24 167.43 425.4 167.23 426.43 167.19Z" id="e2KD46dki9"></path><path d="M356.55 236.95C356.55 236.95 335.09 226.7 335.44 235.56C335.44 235.56 357.06 250.23 357.06 250.23C356.96 247.58 356.65 239.61 356.55 236.95Z" id="c23gWDT2xm"></path><path d="M354.46 354.51C354.46 354.51 345.02 396.99 352.35 414.44C352.35 414.44 380.5 483.17 380.72 488.7C380.72 488.7 378.93 499.85 383.36 499.68C383.36 499.68 411.87 491.92 412.85 488.56C412.85 488.56 404.63 476.69 404.63 476.69C403.12 471.94 395.55 448.23 381.93 405.53L405.62 359.18L422.71 428.33C424.71 480.12 425.83 508.89 426.05 514.65C426.05 514.65 442.48 509.58 444.87 513.92C444.87 513.92 452.23 503.66 453.16 499.19C454.1 494.72 449.68 409.55 449.68 409.55C449.68 409.55 464.76 312.55 452.59 313.02C440.42 313.5 392.74 284.31 368.32 311.86C365.55 320.39 358.2 336.63 354.46 354.51Z" id="bUH7lIUpu"></path><path d="M383.25 494.68C383.25 494.68 372.02 519.5 370.96 520.65C370.96 520.65 362.58 533.16 368.11 532.95C368.11 532.95 386.71 526.69 396.33 517.45C396.33 517.45 418.62 492.2 417.47 491.14C417.47 491.14 408.45 487.06 408.45 487.06C403.41 488.58 388.29 493.16 383.25 494.68Z" id="cTU2Ft5BM"></path><path d="M426.05 524.06C426.05 524.06 424.26 535.21 429.8 535C429.8 535 449.63 532.01 449.63 532.01C449.63 532.01 450.48 525.33 449.33 524.27C449.33 524.27 443.28 511.2 445.37 507.8C447.45 504.39 428.77 508.44 428.77 508.44C428.22 511.56 428.09 519.55 426.05 524.06Z" id="f1Lh5T4wlP"></path><path d="M452.63 171.17C452.63 171.17 444.29 184.79 444.29 184.79C441.98 185.1 423.46 187.59 421.14 187.9C421.14 187.9 421.43 166.83 420.24 164.66C419.05 162.49 436.24 148.53 436.24 148.53C439.52 153.06 448.03 166.91 452.63 171.17Z" id="iyg4R21Ue"></path><path d="M416.11 172.58C416.11 172.58 420.88 181.26 425.31 181.09C425.31 181.09 452.63 171.17 453.61 167.8C453.61 167.8 461.19 191.89 461.19 191.89C457.46 198.46 438.78 231.33 405.17 290.48L391.5 281.04L398.13 223.15L403.56 191.91C410.26 181.6 414.44 175.16 416.11 172.58Z" id="aN9xD6lRf"></path><path d="M452.24 275.36C452.25 275.58 452.26 275.8 452.28 276.02C452.81 286.26 456.58 298.11 457.93 306.72C458.91 312.9 458.63 317.41 455.02 318.47C446.25 321.03 456.3 322.85 422.38 334.14C388.46 345.43 382.54 335.69 382.46 333.48C382.37 331.26 387.26 314.45 386.11 313.39C384.96 312.32 370.03 327.31 365.51 325.27C361 323.22 365 311.99 365 311.99C365 311.99 375.16 288.32 374.95 282.79C374.73 277.25 390.35 251.16 390.35 251.16C391.41 244.25 399.9 188.95 400.96 182.03C400.96 182.03 405.05 173.01 410.54 171.69C410.54 171.69 420.58 173.52 420.58 173.52C419.97 174.87 416.91 181.64 411.4 193.82L401.7 229.66C402.68 237.6 403.22 242.02 403.32 242.9C403.32 242.9 414.6 219.19 422 210.03C422 210.03 445.19 179.21 445.19 179.21C445.19 179.21 448.87 166.78 446.09 163.06C443.31 159.34 457.69 158.78 463.83 174.06C467.08 182.15 472.35 194.23 475.66 205.47C478.61 215.43 480 224.74 477.08 230.06C472.62 238.19 461.4 248.88 455.68 260.82C453.44 265.49 452.05 270.37 452.24 275.36Z" id="fl0nn9rna"></path><path d="M455.68 260.82C454.18 255.43 452.36 249.86 452.36 249.86C452.36 249.86 445.37 212.45 466.05 202.78C469.48 202.45 472.9 203.41 475.66 205.47C478.61 215.43 480 224.74 477.08 230.06C472.62 238.19 461.4 248.88 455.68 260.82Z" id="c1uMhvwYS5"></path><path d="M377.44 232.82L353.1 233.76L350.59 254.92C374.6 256.65 387.94 257.61 390.6 257.8C390.6 257.8 400.6 229.7 394.98 227.71C392.64 228.39 386.8 230.09 377.44 232.82Z" id="a6JNpoIjK"></path><path d="M423.57 298.83C423.57 298.83 400.11 302.72 405.47 309.78C405.47 309.78 431.6 309.42 431.6 309.42C429.99 307.3 425.18 300.95 423.57 298.83Z" id="a1aMpRtH8u"></path><path d="M457.93 306.72C450.46 313.79 443.35 320.03 440.68 320.14C435.14 320.35 426.25 319.59 422.97 320.82C419.69 322.06 417.77 301.07 417.77 301.07C417.77 301.07 419.73 294.35 428.45 290.69C434.34 288.21 445.63 281.49 452.28 276.02C452.81 286.26 456.58 298.11 457.93 306.72Z" id="ciTAqUgej"></path><path d="M483.51 224.27C483.51 224.27 485.48 275.18 477.95 281.01C477.95 281.01 445.95 313.28 440.42 313.5C440.42 313.5 425.99 312.95 422.71 314.18C422.71 314.18 417.51 294.44 417.51 294.44C417.51 294.44 419.47 287.71 428.19 284.05C428.19 284.05 457.47 267.4 457.3 262.97C457.3 262.97 452.1 243.22 452.1 243.22C452.1 243.22 445.11 205.81 465.79 196.14C469.33 201.77 484.52 193.2 483.51 224.27Z" id="fgZSspKpD"></path><path d="M419.72 127.02C406.27 127.02 395.36 137.93 395.36 151.38C395.36 164.84 406.27 175.75 419.72 175.75C433.18 175.75 444.09 164.84 444.09 151.38C444.09 137.93 433.18 127.02 419.72 127.02Z" id="aPOYjnpSU"></path><path d="M401.27 117.49C400.48 117.63 399.72 117.11 399.58 116.32C399.02 117.48 398.39 118.71 397.25 119.3C396.12 119.89 394.36 119.4 394.19 118.12C394.03 119.09 393.6 119.99 392.96 120.73C392.25 121.41 390.97 121.58 390.35 120.82C390.85 123.54 390.54 126.34 390.7 129.11C390.86 131.87 391.59 134.8 393.68 136.62C396.73 139.27 401.31 138.62 405.32 138.12C405.92 137.99 406.55 138.02 407.14 138.22C408.64 138.86 408.57 140.94 408.59 142.57C408.84 148.48 413.33 153.34 419.19 154.07C420.78 154.32 422.41 153.92 423.71 152.97C424.84 152.01 425.42 150.44 426.73 149.71C428.85 148.53 431.42 150.25 432.97 152.12C434.52 153.98 436.05 156.28 438.45 156.62C441.63 157.07 444.05 153.84 445.23 150.86C448.54 142.42 448.3 133 444.57 124.74C437.93 110.28 415.28 107.99 403.32 116.46C402.73 116.97 402.03 117.32 401.27 117.49Z" id="b58y4DqvnQ"></path></defs><g><g><g><use xlink:href="#cGSc9F6FI" opacity="1" fill="#0091ea" fill-opacity="1"></use><g><use xlink:href="#cGSc9F6FI" opacity="1" fill-opacity="0" stroke="#000000" stroke-width="1" stroke-opacity="0"></use></g></g><g><use xlink:href="#a5I0we10Ye" opacity="1" fill="#259ce6" fill-opacity="1"></use><g><use xlink:href="#a5I0we10Ye" opacity="1" fill-opacity="0" stroke="#000000" stroke-width="1" stroke-opacity="0"></use></g></g><g><use xlink:href="#b4CdX7E28T" opacity="1" fill="url(#gradientadNqpFcDZ)"></use><g><use xlink:href="#b4CdX7E28T" opacity="1" fill-opacity="0" stroke="#000000" stroke-width="1" stroke-opacity="0"></use></g></g><g><use xlink:href="#bAFiiXRFn" opacity="1" fill="#3ad29f" fill-opacity="1"></use><g><use xlink:href="#bAFiiXRFn" opacity="1" fill-opacity="0" stroke="#000000" stroke-width="1" stroke-opacity="0"></use></g></g><g><use xlink:href="#e1Z65VsYza" opacity="1" fill="#4d8af0" fill-opacity="1"></use><g><use xlink:href="#e1Z65VsYza" opacity="1" fill-opacity="0" stroke="#000000" stroke-width="1" stroke-opacity="0"></use></g></g><g><use xlink:href="#a2hPvYThTL" opacity="1" fill="#4d8af0" fill-opacity="1"></use><g><use xlink:href="#a2hPvYThTL" opacity="1" fill-opacity="0" stroke="#000000" stroke-width="1" stroke-opacity="0"></use></g></g><g><use xlink:href="#a3aEyx1Npc" opacity="1" fill="#f55f44" fill-opacity="1"></use><g><use xlink:href="#a3aEyx1Npc" opacity="1" fill-opacity="0" stroke="#000000" stroke-width="1" stroke-opacity="0"></use></g></g><g><use xlink:href="#a3bcBFQtTQ" opacity="1" fill="#f55f44" fill-opacity="1"></use><g><use xlink:href="#a3bcBFQtTQ" opacity="1" fill-opacity="0" stroke="#000000" stroke-width="1" stroke-opacity="0"></use></g></g><g><use xlink:href="#a354RMSoe" opacity="1" fill="#f55f44" fill-opacity="1"></use><g><use xlink:href="#a354RMSoe" opacity="1" fill-opacity="0" stroke="#000000" stroke-width="1" stroke-opacity="0"></use></g></g><g><use xlink:href="#azLZlPUbC" opacity="1" fill="#4d8af0" fill-opacity="1"></use><g><use xlink:href="#azLZlPUbC" opacity="1" fill-opacity="0" stroke="#000000" stroke-width="1" stroke-opacity="0"></use></g></g><g><use xlink:href="#jx48Ykt3q" opacity="1" fill="#4d8af0" fill-opacity="1"></use><g><use xlink:href="#jx48Ykt3q" opacity="1" fill-opacity="0" stroke="#000000" stroke-width="1" stroke-opacity="0"></use></g></g><g><use xlink:href="#f2cA0Ukk4G" opacity="1" fill="#4d8af0" fill-opacity="1"></use><g><use xlink:href="#f2cA0Ukk4G" opacity="1" fill-opacity="0" stroke="#000000" stroke-width="1" stroke-opacity="0"></use></g></g><g><use xlink:href="#ba7VVQSG" opacity="1" fill="#47e6b1" fill-opacity="1"></use><g><use xlink:href="#ba7VVQSG" opacity="1" fill-opacity="0" stroke="#000000" stroke-width="1" stroke-opacity="0"></use></g></g><g><use xlink:href="#b1hMGwLcX5" opacity="1" fill="#47e6b1" fill-opacity="1"></use><g><use xlink:href="#b1hMGwLcX5" opacity="1" fill-opacity="0" stroke="#000000" stroke-width="1" stroke-opacity="0"></use></g></g><g><use xlink:href="#a3EjFx2Cc" opacity="1" fill="#47e6b1" fill-opacity="1"></use><g><use xlink:href="#a3EjFx2Cc" opacity="1" fill-opacity="0" stroke="#000000" stroke-width="1" stroke-opacity="0"></use></g></g><g><use xlink:href="#f2iINgtrNZ" opacity="1" fill="#47e6b1" fill-opacity="1"></use><g><use xlink:href="#f2iINgtrNZ" opacity="1" fill-opacity="0" stroke="#000000" stroke-width="1" stroke-opacity="0"></use></g></g><g><use xlink:href="#a24iNVTe" opacity="1" fill="#47e6b1" fill-opacity="1"></use><g><use xlink:href="#a24iNVTe" opacity="1" fill-opacity="0" stroke="#000000" stroke-width="1" stroke-opacity="0"></use></g></g><g><use xlink:href="#b12faaURcG" opacity="1" fill="#47e6b1" fill-opacity="1"></use><g><use xlink:href="#b12faaURcG" opacity="1" fill-opacity="0" stroke="#000000" stroke-width="1" stroke-opacity="0"></use></g></g><g><use xlink:href="#f6sGw2qK0n" opacity="1" fill="#47e6b1" fill-opacity="1"></use><g><use xlink:href="#f6sGw2qK0n" opacity="1" fill-opacity="0" stroke="#000000" stroke-width="1" stroke-opacity="0"></use></g></g><g><use xlink:href="#bsKxs8SrF" opacity="1" fill="#47e6b1" fill-opacity="1"></use><g><use xlink:href="#bsKxs8SrF" opacity="1" fill-opacity="0" stroke="#000000" stroke-width="1" stroke-opacity="0"></use></g></g><g><use xlink:href="#a5jNtjNzMO" opacity="1" fill="#47e6b1" fill-opacity="1"></use><g><use xlink:href="#a5jNtjNzMO" opacity="1" fill-opacity="0" stroke="#000000" stroke-width="1" stroke-opacity="0"></use></g></g><g><use xlink:href="#g13cDkwFq7" opacity="1" fill="#47e6b1" fill-opacity="1"></use><g><use xlink:href="#g13cDkwFq7" opacity="1" fill-opacity="0" stroke="#000000" stroke-width="1" stroke-opacity="0"></use></g></g><g><use xlink:href="#a1mlSxifoZ" opacity="1" fill="#47e6b1" fill-opacity="1"></use><g><use xlink:href="#a1mlSxifoZ" opacity="1" fill-opacity="0" stroke="#000000" stroke-width="1" stroke-opacity="0"></use></g></g><g><use xlink:href="#e2KD46dki9" opacity="1" fill="#0091ea" fill-opacity="1"></use><g><use xlink:href="#e2KD46dki9" opacity="1" fill-opacity="0" stroke="#000000" stroke-width="1" stroke-opacity="0"></use></g></g><g><use xlink:href="#c23gWDT2xm" opacity="1" fill="#ffb9b9" fill-opacity="1"></use><g><use xlink:href="#c23gWDT2xm" opacity="1" fill-opacity="0" stroke="#000000" stroke-width="1" stroke-opacity="0"></use></g></g><g><use xlink:href="#bUH7lIUpu" opacity="1" fill="#000000" fill-opacity="1"></use><g><use xlink:href="#bUH7lIUpu" opacity="1" fill-opacity="0" stroke="#000000" stroke-width="1" stroke-opacity="0"></use></g></g><g><use xlink:href="#cTU2Ft5BM" opacity="1" fill="#b2b6b9" fill-opacity="1"></use><g><use xlink:href="#cTU2Ft5BM" opacity="1" fill-opacity="0" stroke="#000000" stroke-width="1" stroke-opacity="0"></use></g></g><g><use xlink:href="#f1Lh5T4wlP" opacity="1" fill="#b2b6b9" fill-opacity="1"></use><g><use xlink:href="#f1Lh5T4wlP" opacity="1" fill-opacity="0" stroke="#000000" stroke-width="1" stroke-opacity="0"></use></g></g><g><use xlink:href="#iyg4R21Ue" opacity="1" fill="#ffb9b9" fill-opacity="1"></use><g><use xlink:href="#iyg4R21Ue" opacity="1" fill-opacity="0" stroke="#000000" stroke-width="1" stroke-opacity="0"></use></g></g><g><use xlink:href="#aN9xD6lRf" opacity="1" fill="#b2b6b9" fill-opacity="1"></use><g><use xlink:href="#aN9xD6lRf" opacity="1" fill-opacity="0" stroke="#000000" stroke-width="1" stroke-opacity="0"></use></g></g><g><use xlink:href="#fl0nn9rna" opacity="1" fill="#201d12" fill-opacity="1"></use><g><use xlink:href="#fl0nn9rna" opacity="1" fill-opacity="0" stroke="#000000" stroke-width="1" stroke-opacity="0"></use></g></g><g><use xlink:href="#c1uMhvwYS5" opacity="1" fill="#000000" fill-opacity="1"></use><g><use xlink:href="#c1uMhvwYS5" opacity="1" fill-opacity="0" stroke="#000000" stroke-width="1" stroke-opacity="0"></use></g></g><g><use xlink:href="#a6JNpoIjK" opacity="1" fill="#212224" fill-opacity="1"></use><g><use xlink:href="#a6JNpoIjK" opacity="1" fill-opacity="0" stroke="#000000" stroke-width="1" stroke-opacity="0"></use></g></g><g><use xlink:href="#a1aMpRtH8u" opacity="1" fill="#ffb9b9" fill-opacity="1"></use><g><use xlink:href="#a1aMpRtH8u" opacity="1" fill-opacity="0" stroke="#000000" stroke-width="1" stroke-opacity="0"></use></g></g><g><use xlink:href="#ciTAqUgej" opacity="1" fill="#000000" fill-opacity="1"></use><g><use xlink:href="#ciTAqUgej" opacity="1" fill-opacity="0" stroke="#000000" stroke-width="1" stroke-opacity="0"></use></g></g><g><use xlink:href="#fgZSspKpD" opacity="1" fill="#1d1e24" fill-opacity="1"></use><g><use xlink:href="#fgZSspKpD" opacity="1" fill-opacity="0" stroke="#000000" stroke-width="1" stroke-opacity="0"></use></g></g><g><use xlink:href="#aPOYjnpSU" opacity="1" fill="#ffb9b9" fill-opacity="1"></use><g><use xlink:href="#aPOYjnpSU" opacity="1" fill-opacity="0" stroke="#000000" stroke-width="1" stroke-opacity="0"></use></g></g><g><use xlink:href="#b58y4DqvnQ" opacity="1" fill="#2f2e41" fill-opacity="1"></use><g><use xlink:href="#b58y4DqvnQ" opacity="1" fill-opacity="0" stroke="#000000" stroke-width="1" stroke-opacity="0"></use></g></g></g></g></svg>